<!-- Файл спрайта -->

<svg xmlns="http://www.w3.org/2000/svg" xmlns:xlink="http://www.w3.org/1999/xlink">

	<symbol id="icon-favorites" viewBox="-4 -5 43 43">
		<path d="M14.7 15.8c-.4-.9-.7-2.1-.7-3.3s.3-2.5.7-3.7c.5-1.2 1.1-2.3 1.9-3.2.8-.9 1.8-1.7 2.9-2.3 1.1-.5 2.3-.8 3.5-.8s2.4.3 3.5.7c1.1.5 2 1.1 2.9 1.9.8.8 1.5 1.8 1.9 2.9.4 1.1.7 2.3.7 3.5s-.3 2.4-.7 3.5c-.5 1.1-1.1 2-1.9 2.9-.8.8-12.3 11.1-13.4 11.6C14.9 29 3.5 18.7 2.6 17.9c-.8-.8-1.5-1.8-1.9-2.9-.4-1.1-.7-2.3-.7-3.5S.3 9.1.7 8c.5-1.1 1.1-2 1.9-2.9.9-.8 1.8-1.4 2.9-1.9 1.1-.4 2.3-.7 3.5-.7s2.4.3 3.5.9c1.1.6 2 1.3 2.9 2.3.8.9 1.5 2 1.9 3.2.4 1.1.7 2.4.7 3.6s-.3 2.4-.7 3.3c-.5 1-1.1 1.8-1.9 2.5"></path>
	</symbol>

</svg>

<!-- Использование изображения из спрайта -->

<svg width="25" height="25">
  <use xlink:href="./images/sprite.svg#icon-favorites"></use>
</svg>
